<?xml version="1.0" encoding="UTF-8"?>
<svg id="Layer_1" xmlns="http://www.w3.org/2000/svg" version="1.1" viewBox="0 0 2327.2983 595.2756">
  <!-- Generator: Adobe Illustrator 29.6.0, SVG Export Plug-In . SVG Version: 2.1.1 Build 207)  -->
  <defs>
    <style>
      .st0 {
        fill: #fff;
      }
    </style>
  </defs>
  <g>
    <path class="st0" d="M878.165,442.9795l-50.0566-72.3047h-55.248v72.3047h-60.0684V183.4258h112.3496c22.9893,0,42.9482,3.8354,59.8828,11.4946,16.9297,7.665,29.9707,18.54,39.1191,32.6299,9.1426,14.0898,13.7188,30.7754,13.7188,50.0566s-4.6348,35.9087-13.9043,49.8706c-9.2695,13.9688-22.4326,24.6582-39.4893,32.0742l58.2139,83.4277h-64.5176ZM862.9629,244.0503c-9.3975-7.7861-23.1172-11.6797-41.1582-11.6797h-48.9443v90.4722h48.9443c18.041,0,31.7607-3.9512,41.1582-11.8652,9.3916-7.9082,14.0898-19.0317,14.0898-33.3706,0-14.582-4.6982-25.7695-14.0898-33.5566Z"/>
    <path class="st0" d="M984.2061,206.4146c-6.6738-6.1758-10.0107-13.8403-10.0107-22.9888,0-9.1421,3.3369-16.8071,10.0107-22.9888,6.6748-6.1763,15.3242-9.27,25.9561-9.27,10.625,0,19.2803,2.9663,25.9551,8.8989,6.6738,5.9326,10.0117,13.3486,10.0117,22.2476,0,9.6406-3.3379,17.6128-10.0117,23.9165-6.6748,6.3027-15.3301,9.4551-25.9551,9.4551-10.6318,0-19.2812-3.0879-25.9561-9.2705ZM981.2402,243.4946h57.8428v199.4849h-57.8428v-199.4849Z"/>
    <path class="st0" d="M1290.8486,243.4946l-84.1689,199.4849h-59.6973l-83.7998-199.4849h59.6982l55.248,135.7085,57.1016-135.7085h55.6182Z"/>
    <path class="st0" d="M1503.3105,359.5518h-150.9121c2.7168,12.3633,9.1416,22.125,19.2803,29.292,10.1338,7.1729,22.7402,10.7529,37.8213,10.7529,10.3818,0,19.5879-1.541,27.624-4.6348,8.0293-3.0879,15.5098-7.9717,22.4326-14.6465l30.7754,33.3711c-18.7881,21.5059-46.2266,32.2598-82.3154,32.2598-22.4961,0-42.3975-4.3867-59.6973-13.1631-17.3057-8.7725-30.6543-20.9502-40.0459-36.5234-9.3965-15.5732-14.0898-33.2441-14.0898-53.0234,0-19.5244,4.6348-37.1367,13.9043-52.8374,9.2705-15.6943,21.999-27.9307,38.1924-36.708,16.1865-8.7715,34.2979-13.1631,54.3203-13.1631,19.5244,0,37.2012,4.2061,53.0234,12.6064,15.8164,8.4072,28.2383,20.458,37.2646,36.1523,9.0205,15.7007,13.5342,33.9272,13.5342,54.6919,0,.7412-.3711,5.9326-1.1123,15.5732ZM1367.9707,295.4048c-8.8984,7.4155-14.3389,17.5542-16.3145,30.4048h98.2598c-1.9814-12.6074-7.416-22.6768-16.3145-30.2192-8.8994-7.5371-19.7793-11.3096-32.6299-11.3096-13.1055,0-24.1016,3.708-33.001,11.124Z"/>
    <path class="st0" d="M1724.1152,262.7749c15.2021,14.832,22.8027,36.8354,22.8027,66.0005v114.2041h-57.8428v-105.3047c0-15.8164-3.4648-27.624-10.3828-35.4111-6.9229-7.7856-16.9346-11.6792-30.0332-11.6792-14.5889,0-26.2051,4.5137-34.8545,13.5337-8.6562,9.0264-12.9785,22.4326-12.9785,40.2305v98.6309h-57.8428v-199.4849h55.248v23.3594c7.6592-8.4004,17.1777-14.8896,28.5508-19.4668,11.3672-4.5713,23.8525-6.8594,37.4492-6.8594,24.7158,0,44.6807,7.416,59.8838,22.2471Z"/>
    <path class="st0" d="M1927.8623,433.3389c-5.6895,4.2061-12.6699,7.3584-20.9492,9.4551-8.2852,2.0977-16.999,3.1523-26.1406,3.1523-23.7314,0-42.085-6.0547-55.0625-18.1689-12.9785-12.1094-19.4668-29.9072-19.4668-53.3945v-81.9438h-30.7754v-44.4951h30.7754v-48.5737h57.8438v48.5737h49.6855v44.4951h-49.6855v81.2026c0,8.4062,2.1602,14.8955,6.4883,19.4668,4.3223,4.5762,10.4404,6.8594,18.3545,6.8594,9.1426,0,16.9287-2.4678,23.3594-7.416l15.5732,40.7871Z"/>
    <path class="st0" d="M1963.457,206.4146c-6.6738-6.1758-10.0107-13.8403-10.0107-22.9888,0-9.1421,3.3369-16.8071,10.0107-22.9888,6.6748-6.1763,15.3242-9.27,25.9561-9.27,10.625,0,19.2803,2.9663,25.9551,8.8989,6.6738,5.9326,10.0117,13.3486,10.0117,22.2476,0,9.6406-3.3379,17.6128-10.0117,23.9165-6.6748,6.3027-15.3301,9.4551-25.9551,9.4551-10.6318,0-19.2812-3.0879-25.9561-9.2705ZM1960.4912,243.4946h57.8428v199.4849h-57.8428v-199.4849Z"/>
    <path class="st0" d="M2111.2158,432.7832c-16.9346-8.7725-30.1611-20.9502-39.6748-36.5234-9.5186-15.5732-14.2754-33.2441-14.2754-53.0234s4.7568-37.4492,14.2754-53.022c9.5137-15.5732,22.7402-27.7461,39.6748-36.5234,16.9287-8.7715,36.0244-13.1631,57.2871-13.1631,21.0078,0,39.3623,4.3916,55.0625,13.1631,15.6953,8.7773,27.126,21.3203,34.2988,37.6357l-44.8662,24.1001c-10.3818-18.2896-25.3408-27.438-44.8652-27.438-15.0811,0-27.5664,4.9482-37.4502,14.8315-9.8896,9.8896-14.832,23.3594-14.832,40.416s4.9424,30.5322,14.832,40.417c9.8838,9.8896,22.3691,14.8311,37.4502,14.8311,19.7734,0,34.7266-9.1426,44.8652-27.4385l44.8662,24.4727c-7.1729,15.8223-18.6035,28.1797-34.2988,37.0791-15.7002,8.8984-34.0547,13.3486-55.0625,13.3486-21.2627,0-40.3584-4.3867-57.2871-13.1631Z"/>
  </g>
  <path class="st0" d="M621.996,508.7739h-105.6475c-22.9566,0-44.7576-10.0704-59.6404-27.5492l-130.9883-153.837c-11.5551-13.5706-1.9108-34.4492,15.9128-34.4491h131.8474c11.2244,0,16.8456-13.5708,8.9088-21.5077-18.9162-18.9163-37.8324-37.8326-56.7486-56.7488-11.7583-11.7583-27.706-18.3641-44.3348-18.3641H87.5764c-13.4005,0-20.9452-15.4055-12.7293-25.992l39.5978-51.0225c16.0601-20.6938,40.7839-32.8019,66.9785-32.8019h229.9298c23.9462,0,48.7932,2.1888,74.477,6.6304,25.6839,4.3771,48.986,12.2946,70.0354,23.6884,21.0493,11.3293,38.4295,26.7136,52.0761,46.0248,13.711,19.3756,20.5343,44.223,20.5343,74.5414,0,16.4145-2.5106,31.9925-7.5957,46.6688-5.0211,14.7412-12.295,28.0015-21.7573,39.781-9.4627,11.78-21.0494,21.7574-34.6959,29.9971-5.6297,3.3838-11.5659,6.3497-17.8085,8.9041-10.2542,4.1959-13.2421,17.2512-5.635,25.3064l91.3551,96.7369c8.5676,9.0723,2.1358,23.9929-10.3426,23.9929Z"/>
</svg>